<mxfile host="app.diagrams.net" agent="Mozilla/5.0 (Windows NT 10.0; Win64; x64) AppleWebKit/537.36 (KHTML, like Gecko) Chrome/127.0.0.0 Safari/537.36" version="24.7.6">
  <diagram id="prtHgNgQTEPvFCAcTncT" name="Page-1">
    <mxGraphModel dx="2607" dy="1495" grid="1" gridSize="10" guides="1" tooltips="1" connect="1" arrows="1" fold="1" page="1" pageScale="1" pageWidth="827" pageHeight="1169" math="0" shadow="0">
      <root>
        <mxCell id="0" />
        <mxCell id="1" parent="0" />
        <mxCell id="4UamNcmBHcD0NCrSmqoo-158" value="List Data" style="rounded=0;whiteSpace=wrap;html=1;verticalAlign=top;fontStyle=1" vertex="1" parent="1">
          <mxGeometry x="1320" y="120" width="990" height="1020" as="geometry" />
        </mxCell>
        <mxCell id="4UamNcmBHcD0NCrSmqoo-84" value="Upload GPH Manual" style="rounded=0;whiteSpace=wrap;html=1;verticalAlign=top;fontStyle=1;fillColor=#f5f5f5;strokeColor=#666666;fontColor=#333333;" vertex="1" parent="1">
          <mxGeometry x="580" y="120" width="740" height="1020" as="geometry" />
        </mxCell>
        <mxCell id="4UamNcmBHcD0NCrSmqoo-83" value="Upload GPH From J-HUB" style="rounded=0;whiteSpace=wrap;html=1;verticalAlign=top;fontStyle=1" vertex="1" parent="1">
          <mxGeometry x="160" y="120" width="420" height="1020" as="geometry" />
        </mxCell>
        <mxCell id="dNxyNK7c78bLwvsdeMH5-19" value="Upload File" style="swimlane;html=1;childLayout=stackLayout;resizeParent=1;resizeParentMax=0;horizontal=0;startSize=20;horizontalStack=0;" parent="1" vertex="1">
          <mxGeometry x="120" y="120" width="3290" height="1020" as="geometry" />
        </mxCell>
        <mxCell id="dNxyNK7c78bLwvsdeMH5-20" value="Client" style="swimlane;html=1;startSize=20;horizontal=0;" parent="dNxyNK7c78bLwvsdeMH5-19" vertex="1">
          <mxGeometry x="20" width="3270" height="160" as="geometry" />
        </mxCell>
        <mxCell id="4UamNcmBHcD0NCrSmqoo-8" value="User" style="shape=actor;whiteSpace=wrap;html=1;verticalAlign=top;horizontal=1;labelPosition=center;verticalLabelPosition=bottom;align=center;" vertex="1" parent="dNxyNK7c78bLwvsdeMH5-20">
          <mxGeometry x="514" y="50" width="40" height="60" as="geometry" />
        </mxCell>
        <mxCell id="4UamNcmBHcD0NCrSmqoo-11" value="J-HUB" style="sketch=0;outlineConnect=0;fontColor=#232F3E;gradientColor=none;strokeColor=#232F3E;fillColor=#ffffff;dashed=0;verticalLabelPosition=bottom;verticalAlign=top;align=center;html=1;fontSize=12;fontStyle=0;aspect=fixed;shape=mxgraph.aws4.resourceIcon;resIcon=mxgraph.aws4.client;" vertex="1" parent="dNxyNK7c78bLwvsdeMH5-20">
          <mxGeometry x="80" y="30" width="60" height="60" as="geometry" />
        </mxCell>
        <mxCell id="4UamNcmBHcD0NCrSmqoo-121" value="User" style="shape=actor;whiteSpace=wrap;html=1;verticalAlign=top;horizontal=1;labelPosition=center;verticalLabelPosition=bottom;align=center;" vertex="1" parent="dNxyNK7c78bLwvsdeMH5-20">
          <mxGeometry x="1590" y="58" width="40" height="60" as="geometry" />
        </mxCell>
        <mxCell id="4UamNcmBHcD0NCrSmqoo-163" value="User" style="shape=actor;whiteSpace=wrap;html=1;verticalAlign=top;horizontal=1;labelPosition=center;verticalLabelPosition=bottom;align=center;" vertex="1" parent="dNxyNK7c78bLwvsdeMH5-20">
          <mxGeometry x="2680" y="58" width="40" height="60" as="geometry" />
        </mxCell>
        <mxCell id="dNxyNK7c78bLwvsdeMH5-21" value="Frontend" style="swimlane;html=1;startSize=20;horizontal=0;" parent="dNxyNK7c78bLwvsdeMH5-19" vertex="1">
          <mxGeometry x="20" y="160" width="3270" height="120" as="geometry" />
        </mxCell>
        <mxCell id="4UamNcmBHcD0NCrSmqoo-9" value="Not Authorize" style="shape=display;whiteSpace=wrap;html=1;" vertex="1" parent="dNxyNK7c78bLwvsdeMH5-21">
          <mxGeometry x="604" y="29" width="100" height="50" as="geometry" />
        </mxCell>
        <mxCell id="4UamNcmBHcD0NCrSmqoo-34" value="Upload Data GPH" style="shape=document;whiteSpace=wrap;html=1;boundedLbl=1;" vertex="1" parent="dNxyNK7c78bLwvsdeMH5-21">
          <mxGeometry x="474" y="24" width="120" height="80" as="geometry" />
        </mxCell>
        <mxCell id="4UamNcmBHcD0NCrSmqoo-49" value="Data Invalid" style="shape=display;whiteSpace=wrap;html=1;" vertex="1" parent="dNxyNK7c78bLwvsdeMH5-21">
          <mxGeometry x="709" y="29" width="100" height="50" as="geometry" />
        </mxCell>
        <mxCell id="4UamNcmBHcD0NCrSmqoo-57" value="Temp Data&amp;nbsp;" style="shape=display;whiteSpace=wrap;html=1;" vertex="1" parent="dNxyNK7c78bLwvsdeMH5-21">
          <mxGeometry x="814" y="29" width="100" height="50" as="geometry" />
        </mxCell>
        <mxCell id="4UamNcmBHcD0NCrSmqoo-88" value="List GPH JHUB" style="shape=display;whiteSpace=wrap;html=1;" vertex="1" parent="dNxyNK7c78bLwvsdeMH5-21">
          <mxGeometry x="1220" y="35" width="100" height="50" as="geometry" />
        </mxCell>
        <mxCell id="4UamNcmBHcD0NCrSmqoo-89" value="Detail GPH J-HUB" style="shape=display;whiteSpace=wrap;html=1;" vertex="1" parent="dNxyNK7c78bLwvsdeMH5-21">
          <mxGeometry x="1350" y="35" width="100" height="50" as="geometry" />
        </mxCell>
        <mxCell id="4UamNcmBHcD0NCrSmqoo-90" value="Download Response" style="shape=document;whiteSpace=wrap;html=1;boundedLbl=1;" vertex="1" parent="dNxyNK7c78bLwvsdeMH5-21">
          <mxGeometry x="1490" y="24" width="120" height="80" as="geometry" />
        </mxCell>
        <mxCell id="4UamNcmBHcD0NCrSmqoo-91" value="Download Un-Process" style="shape=document;whiteSpace=wrap;html=1;boundedLbl=1;" vertex="1" parent="dNxyNK7c78bLwvsdeMH5-21">
          <mxGeometry x="2030" y="24" width="120" height="80" as="geometry" />
        </mxCell>
        <mxCell id="4UamNcmBHcD0NCrSmqoo-100" value="Detail Data GPH Manual" style="shape=display;whiteSpace=wrap;html=1;" vertex="1" parent="dNxyNK7c78bLwvsdeMH5-21">
          <mxGeometry x="1902" y="37" width="100" height="50" as="geometry" />
        </mxCell>
        <mxCell id="4UamNcmBHcD0NCrSmqoo-101" value="Not Authorize" style="shape=display;whiteSpace=wrap;html=1;" vertex="1" parent="dNxyNK7c78bLwvsdeMH5-21">
          <mxGeometry x="1638" y="35" width="100" height="50" as="geometry" />
        </mxCell>
        <mxCell id="dNxyNK7c78bLwvsdeMH5-22" value="Cone SSO" style="swimlane;html=1;startSize=20;horizontal=0;" parent="dNxyNK7c78bLwvsdeMH5-19" vertex="1">
          <mxGeometry x="20" y="280" width="3270" height="120" as="geometry" />
        </mxCell>
        <mxCell id="4UamNcmBHcD0NCrSmqoo-14" value="Authorize" style="rhombus;whiteSpace=wrap;html=1;" vertex="1" parent="dNxyNK7c78bLwvsdeMH5-22">
          <mxGeometry x="70" y="20" width="80" height="80" as="geometry" />
        </mxCell>
        <mxCell id="4UamNcmBHcD0NCrSmqoo-99" value="Authorize" style="rhombus;whiteSpace=wrap;html=1;" vertex="1" parent="dNxyNK7c78bLwvsdeMH5-22">
          <mxGeometry x="1648" y="23" width="80" height="80" as="geometry" />
        </mxCell>
        <mxCell id="4UamNcmBHcD0NCrSmqoo-1" value="Backend (API)" style="swimlane;html=1;startSize=20;horizontal=0;" vertex="1" parent="dNxyNK7c78bLwvsdeMH5-19">
          <mxGeometry x="20" y="400" width="3270" height="120" as="geometry" />
        </mxCell>
        <mxCell id="4UamNcmBHcD0NCrSmqoo-40" value="Authorize" style="rhombus;whiteSpace=wrap;html=1;" vertex="1" parent="4UamNcmBHcD0NCrSmqoo-1">
          <mxGeometry x="494" y="-95" width="80" height="80" as="geometry" />
        </mxCell>
        <mxCell id="4UamNcmBHcD0NCrSmqoo-33" value="Upload Data GPH" style="shape=parallelogram;perimeter=parallelogramPerimeter;whiteSpace=wrap;html=1;fixedSize=1;" vertex="1" parent="4UamNcmBHcD0NCrSmqoo-1">
          <mxGeometry x="474" y="41" width="120" height="60" as="geometry" />
        </mxCell>
        <mxCell id="4UamNcmBHcD0NCrSmqoo-46" style="edgeStyle=none;curved=1;rounded=0;orthogonalLoop=1;jettySize=auto;html=1;exitX=0.5;exitY=1;exitDx=0;exitDy=0;fontSize=12;startSize=8;endSize=8;entryX=0.5;entryY=0;entryDx=0;entryDy=0;" edge="1" parent="4UamNcmBHcD0NCrSmqoo-1" source="4UamNcmBHcD0NCrSmqoo-40" target="4UamNcmBHcD0NCrSmqoo-33">
          <mxGeometry relative="1" as="geometry" />
        </mxCell>
        <mxCell id="4UamNcmBHcD0NCrSmqoo-112" value="Get List Data" style="shape=parallelogram;perimeter=parallelogramPerimeter;whiteSpace=wrap;html=1;fixedSize=1;" vertex="1" parent="4UamNcmBHcD0NCrSmqoo-1">
          <mxGeometry x="1210" y="30" width="120" height="60" as="geometry" />
        </mxCell>
        <mxCell id="4UamNcmBHcD0NCrSmqoo-113" value="Cancel" style="shape=parallelogram;perimeter=parallelogramPerimeter;whiteSpace=wrap;html=1;fixedSize=1;" vertex="1" parent="4UamNcmBHcD0NCrSmqoo-1">
          <mxGeometry x="914" y="30" width="120" height="60" as="geometry" />
        </mxCell>
        <mxCell id="4UamNcmBHcD0NCrSmqoo-114" value="Submit" style="shape=parallelogram;perimeter=parallelogramPerimeter;whiteSpace=wrap;html=1;fixedSize=1;" vertex="1" parent="4UamNcmBHcD0NCrSmqoo-1">
          <mxGeometry x="1045" y="30" width="120" height="60" as="geometry" />
        </mxCell>
        <mxCell id="4UamNcmBHcD0NCrSmqoo-130" value="Get Data by ID" style="shape=parallelogram;perimeter=parallelogramPerimeter;whiteSpace=wrap;html=1;fixedSize=1;" vertex="1" parent="4UamNcmBHcD0NCrSmqoo-1">
          <mxGeometry x="1340" y="30" width="120" height="60" as="geometry" />
        </mxCell>
        <mxCell id="4UamNcmBHcD0NCrSmqoo-133" value="Download response" style="shape=parallelogram;perimeter=parallelogramPerimeter;whiteSpace=wrap;html=1;fixedSize=1;" vertex="1" parent="4UamNcmBHcD0NCrSmqoo-1">
          <mxGeometry x="1490" y="30" width="120" height="60" as="geometry" />
        </mxCell>
        <mxCell id="4UamNcmBHcD0NCrSmqoo-144" value="Get Data by ID" style="shape=parallelogram;perimeter=parallelogramPerimeter;whiteSpace=wrap;html=1;fixedSize=1;" vertex="1" parent="4UamNcmBHcD0NCrSmqoo-1">
          <mxGeometry x="1893" y="30" width="120" height="60" as="geometry" />
        </mxCell>
        <mxCell id="4UamNcmBHcD0NCrSmqoo-148" value="Download unprocessed" style="shape=parallelogram;perimeter=parallelogramPerimeter;whiteSpace=wrap;html=1;fixedSize=1;" vertex="1" parent="4UamNcmBHcD0NCrSmqoo-1">
          <mxGeometry x="2029" y="30" width="120" height="60" as="geometry" />
        </mxCell>
        <mxCell id="4UamNcmBHcD0NCrSmqoo-13" style="edgeStyle=none;curved=1;rounded=0;orthogonalLoop=1;jettySize=auto;html=1;fontSize=12;startSize=8;endSize=8;entryX=0.5;entryY=0;entryDx=0;entryDy=0;" edge="1" parent="dNxyNK7c78bLwvsdeMH5-19" source="4UamNcmBHcD0NCrSmqoo-11" target="4UamNcmBHcD0NCrSmqoo-14">
          <mxGeometry relative="1" as="geometry" />
        </mxCell>
        <mxCell id="4UamNcmBHcD0NCrSmqoo-17" style="edgeStyle=elbowEdgeStyle;rounded=0;orthogonalLoop=1;jettySize=auto;html=1;fontSize=12;startSize=8;endSize=8;" edge="1" parent="dNxyNK7c78bLwvsdeMH5-19" source="4UamNcmBHcD0NCrSmqoo-14" target="4UamNcmBHcD0NCrSmqoo-11">
          <mxGeometry relative="1" as="geometry">
            <Array as="points">
              <mxPoint x="220" y="240" />
            </Array>
          </mxGeometry>
        </mxCell>
        <mxCell id="4UamNcmBHcD0NCrSmqoo-18" value="Response not-authorize" style="edgeLabel;html=1;align=center;verticalAlign=middle;resizable=0;points=[];fontSize=12;" vertex="1" connectable="0" parent="4UamNcmBHcD0NCrSmqoo-17">
          <mxGeometry x="0.0316" y="-2" relative="1" as="geometry">
            <mxPoint x="-2" y="121" as="offset" />
          </mxGeometry>
        </mxCell>
        <mxCell id="4UamNcmBHcD0NCrSmqoo-19" value="No" style="edgeLabel;html=1;align=center;verticalAlign=middle;resizable=0;points=[];fontSize=12;" vertex="1" connectable="0" parent="4UamNcmBHcD0NCrSmqoo-17">
          <mxGeometry x="-0.9158" y="-1" relative="1" as="geometry">
            <mxPoint as="offset" />
          </mxGeometry>
        </mxCell>
        <mxCell id="4UamNcmBHcD0NCrSmqoo-23" style="edgeStyle=elbowEdgeStyle;rounded=0;orthogonalLoop=1;jettySize=auto;html=1;fontSize=12;startSize=8;endSize=8;exitX=0.5;exitY=0;exitDx=0;exitDy=0;" edge="1" parent="dNxyNK7c78bLwvsdeMH5-19" source="4UamNcmBHcD0NCrSmqoo-21" target="4UamNcmBHcD0NCrSmqoo-11">
          <mxGeometry relative="1" as="geometry">
            <Array as="points">
              <mxPoint x="300" y="300" />
            </Array>
          </mxGeometry>
        </mxCell>
        <mxCell id="4UamNcmBHcD0NCrSmqoo-24" value="Response data error" style="edgeLabel;html=1;align=center;verticalAlign=middle;resizable=0;points=[];fontSize=12;" vertex="1" connectable="0" parent="4UamNcmBHcD0NCrSmqoo-23">
          <mxGeometry x="-0.3415" relative="1" as="geometry">
            <mxPoint y="119" as="offset" />
          </mxGeometry>
        </mxCell>
        <mxCell id="4UamNcmBHcD0NCrSmqoo-25" value="No" style="edgeLabel;html=1;align=center;verticalAlign=middle;resizable=0;points=[];fontSize=12;" vertex="1" connectable="0" parent="4UamNcmBHcD0NCrSmqoo-23">
          <mxGeometry x="-0.9373" y="-2" relative="1" as="geometry">
            <mxPoint y="6" as="offset" />
          </mxGeometry>
        </mxCell>
        <mxCell id="4UamNcmBHcD0NCrSmqoo-26" style="edgeStyle=orthogonalEdgeStyle;rounded=0;orthogonalLoop=1;jettySize=auto;html=1;fontSize=12;startSize=8;endSize=8;exitX=1;exitY=0.5;exitDx=0;exitDy=0;" edge="1" parent="dNxyNK7c78bLwvsdeMH5-19" source="4UamNcmBHcD0NCrSmqoo-21" target="4UamNcmBHcD0NCrSmqoo-11">
          <mxGeometry relative="1" as="geometry">
            <Array as="points">
              <mxPoint x="390" y="580" />
              <mxPoint x="390" y="60" />
            </Array>
          </mxGeometry>
        </mxCell>
        <mxCell id="4UamNcmBHcD0NCrSmqoo-27" value="Response success" style="edgeLabel;html=1;align=center;verticalAlign=middle;resizable=0;points=[];fontSize=12;" vertex="1" connectable="0" parent="4UamNcmBHcD0NCrSmqoo-26">
          <mxGeometry x="-0.6554" y="-1" relative="1" as="geometry">
            <mxPoint as="offset" />
          </mxGeometry>
        </mxCell>
        <mxCell id="4UamNcmBHcD0NCrSmqoo-28" value="Yes" style="edgeLabel;html=1;align=center;verticalAlign=middle;resizable=0;points=[];fontSize=12;" vertex="1" connectable="0" parent="4UamNcmBHcD0NCrSmqoo-26">
          <mxGeometry x="-0.9269" y="-2" relative="1" as="geometry">
            <mxPoint as="offset" />
          </mxGeometry>
        </mxCell>
        <mxCell id="4UamNcmBHcD0NCrSmqoo-38" style="edgeStyle=none;curved=1;rounded=0;orthogonalLoop=1;jettySize=auto;html=1;entryX=0.5;entryY=0;entryDx=0;entryDy=0;fontSize=12;startSize=8;endSize=8;" edge="1" parent="dNxyNK7c78bLwvsdeMH5-19" source="4UamNcmBHcD0NCrSmqoo-8" target="4UamNcmBHcD0NCrSmqoo-34">
          <mxGeometry relative="1" as="geometry" />
        </mxCell>
        <mxCell id="4UamNcmBHcD0NCrSmqoo-42" style="edgeStyle=orthogonalEdgeStyle;rounded=0;orthogonalLoop=1;jettySize=auto;html=1;entryX=0;entryY=0;entryDx=50;entryDy=50;entryPerimeter=0;fontSize=12;startSize=8;endSize=8;" edge="1" parent="dNxyNK7c78bLwvsdeMH5-19" source="4UamNcmBHcD0NCrSmqoo-40" target="4UamNcmBHcD0NCrSmqoo-9">
          <mxGeometry relative="1" as="geometry" />
        </mxCell>
        <mxCell id="4UamNcmBHcD0NCrSmqoo-43" value="No" style="edgeLabel;html=1;align=center;verticalAlign=middle;resizable=0;points=[];fontSize=12;" vertex="1" connectable="0" parent="4UamNcmBHcD0NCrSmqoo-42">
          <mxGeometry x="-0.8562" y="-2" relative="1" as="geometry">
            <mxPoint as="offset" />
          </mxGeometry>
        </mxCell>
        <mxCell id="4UamNcmBHcD0NCrSmqoo-50" style="edgeStyle=orthogonalEdgeStyle;rounded=0;orthogonalLoop=1;jettySize=auto;html=1;entryX=0;entryY=0;entryDx=50;entryDy=50;entryPerimeter=0;fontSize=12;startSize=8;endSize=8;exitX=0.5;exitY=0;exitDx=0;exitDy=0;" edge="1" parent="dNxyNK7c78bLwvsdeMH5-19" source="4UamNcmBHcD0NCrSmqoo-47" target="4UamNcmBHcD0NCrSmqoo-49">
          <mxGeometry relative="1" as="geometry" />
        </mxCell>
        <mxCell id="4UamNcmBHcD0NCrSmqoo-52" value="No" style="edgeLabel;html=1;align=center;verticalAlign=middle;resizable=0;points=[];fontSize=12;" vertex="1" connectable="0" parent="4UamNcmBHcD0NCrSmqoo-50">
          <mxGeometry x="-0.888" y="3" relative="1" as="geometry">
            <mxPoint x="3" y="7" as="offset" />
          </mxGeometry>
        </mxCell>
        <mxCell id="4UamNcmBHcD0NCrSmqoo-58" style="edgeStyle=orthogonalEdgeStyle;rounded=0;orthogonalLoop=1;jettySize=auto;html=1;entryX=0;entryY=0;entryDx=50;entryDy=50;entryPerimeter=0;fontSize=12;startSize=8;endSize=8;" edge="1" parent="dNxyNK7c78bLwvsdeMH5-19" source="4UamNcmBHcD0NCrSmqoo-47" target="4UamNcmBHcD0NCrSmqoo-57">
          <mxGeometry relative="1" as="geometry" />
        </mxCell>
        <mxCell id="4UamNcmBHcD0NCrSmqoo-59" value="Yes" style="edgeLabel;html=1;align=center;verticalAlign=middle;resizable=0;points=[];fontSize=12;" vertex="1" connectable="0" parent="4UamNcmBHcD0NCrSmqoo-58">
          <mxGeometry x="-0.905" y="-1" relative="1" as="geometry">
            <mxPoint x="-4" y="-1" as="offset" />
          </mxGeometry>
        </mxCell>
        <mxCell id="4UamNcmBHcD0NCrSmqoo-2" value="Function" style="swimlane;html=1;startSize=20;horizontal=0;" vertex="1" parent="dNxyNK7c78bLwvsdeMH5-19">
          <mxGeometry x="20" y="520" width="3270" height="380" as="geometry" />
        </mxCell>
        <mxCell id="4UamNcmBHcD0NCrSmqoo-22" value="" style="edgeStyle=none;curved=1;rounded=0;orthogonalLoop=1;jettySize=auto;html=1;fontSize=12;startSize=8;endSize=8;" edge="1" parent="4UamNcmBHcD0NCrSmqoo-2" source="4UamNcmBHcD0NCrSmqoo-10" target="4UamNcmBHcD0NCrSmqoo-21">
          <mxGeometry relative="1" as="geometry" />
        </mxCell>
        <mxCell id="4UamNcmBHcD0NCrSmqoo-10" value="Validate Data" style="shape=process;whiteSpace=wrap;html=1;backgroundOutline=1;" vertex="1" parent="4UamNcmBHcD0NCrSmqoo-2">
          <mxGeometry x="51" y="30" width="120" height="60" as="geometry" />
        </mxCell>
        <mxCell id="4UamNcmBHcD0NCrSmqoo-30" style="edgeStyle=orthogonalEdgeStyle;rounded=0;orthogonalLoop=1;jettySize=auto;html=1;entryX=1;entryY=0.5;entryDx=0;entryDy=0;fontSize=12;startSize=8;endSize=8;" edge="1" parent="4UamNcmBHcD0NCrSmqoo-2" source="4UamNcmBHcD0NCrSmqoo-21" target="4UamNcmBHcD0NCrSmqoo-29">
          <mxGeometry relative="1" as="geometry">
            <Array as="points">
              <mxPoint x="370" y="60" />
              <mxPoint x="370" y="160" />
            </Array>
          </mxGeometry>
        </mxCell>
        <mxCell id="4UamNcmBHcD0NCrSmqoo-31" value="save to main" style="edgeLabel;html=1;align=center;verticalAlign=middle;resizable=0;points=[];fontSize=12;" vertex="1" connectable="0" parent="4UamNcmBHcD0NCrSmqoo-30">
          <mxGeometry x="0.1781" y="1" relative="1" as="geometry">
            <mxPoint x="7" y="-28" as="offset" />
          </mxGeometry>
        </mxCell>
        <mxCell id="4UamNcmBHcD0NCrSmqoo-94" value="Yes" style="edgeLabel;html=1;align=center;verticalAlign=middle;resizable=0;points=[];fontSize=12;" vertex="1" connectable="0" parent="4UamNcmBHcD0NCrSmqoo-30">
          <mxGeometry x="-0.7432" y="1" relative="1" as="geometry">
            <mxPoint x="1" as="offset" />
          </mxGeometry>
        </mxCell>
        <mxCell id="4UamNcmBHcD0NCrSmqoo-21" value="data valid?" style="rhombus;whiteSpace=wrap;html=1;" vertex="1" parent="4UamNcmBHcD0NCrSmqoo-2">
          <mxGeometry x="240" y="20" width="80" height="80" as="geometry" />
        </mxCell>
        <mxCell id="4UamNcmBHcD0NCrSmqoo-29" value="Upload DB" style="shape=datastore;whiteSpace=wrap;html=1;" vertex="1" parent="4UamNcmBHcD0NCrSmqoo-2">
          <mxGeometry x="244" y="130" width="60" height="60" as="geometry" />
        </mxCell>
        <mxCell id="4UamNcmBHcD0NCrSmqoo-48" style="edgeStyle=none;curved=1;rounded=0;orthogonalLoop=1;jettySize=auto;html=1;entryX=0;entryY=0.5;entryDx=0;entryDy=0;fontSize=12;startSize=8;endSize=8;" edge="1" parent="4UamNcmBHcD0NCrSmqoo-2" source="4UamNcmBHcD0NCrSmqoo-44" target="4UamNcmBHcD0NCrSmqoo-47">
          <mxGeometry relative="1" as="geometry" />
        </mxCell>
        <mxCell id="4UamNcmBHcD0NCrSmqoo-44" value="Validate Data" style="shape=process;whiteSpace=wrap;html=1;backgroundOutline=1;" vertex="1" parent="4UamNcmBHcD0NCrSmqoo-2">
          <mxGeometry x="474" y="24" width="120" height="60" as="geometry" />
        </mxCell>
        <mxCell id="4UamNcmBHcD0NCrSmqoo-47" value="data valid?" style="rhombus;whiteSpace=wrap;html=1;" vertex="1" parent="4UamNcmBHcD0NCrSmqoo-2">
          <mxGeometry x="719" y="14" width="80" height="80" as="geometry" />
        </mxCell>
        <mxCell id="4UamNcmBHcD0NCrSmqoo-53" value="Upload DB" style="shape=datastore;whiteSpace=wrap;html=1;" vertex="1" parent="4UamNcmBHcD0NCrSmqoo-2">
          <mxGeometry x="826" y="134" width="60" height="60" as="geometry" />
        </mxCell>
        <mxCell id="4UamNcmBHcD0NCrSmqoo-71" style="edgeStyle=orthogonalEdgeStyle;rounded=0;orthogonalLoop=1;jettySize=auto;html=1;entryX=1;entryY=0.5;entryDx=0;entryDy=0;fontSize=12;startSize=8;endSize=8;" edge="1" parent="4UamNcmBHcD0NCrSmqoo-2" source="4UamNcmBHcD0NCrSmqoo-69" target="4UamNcmBHcD0NCrSmqoo-53">
          <mxGeometry relative="1" as="geometry">
            <Array as="points">
              <mxPoint x="974" y="164" />
            </Array>
          </mxGeometry>
        </mxCell>
        <mxCell id="4UamNcmBHcD0NCrSmqoo-69" value="Delete Temp Data" style="shape=process;whiteSpace=wrap;html=1;backgroundOutline=1;" vertex="1" parent="4UamNcmBHcD0NCrSmqoo-2">
          <mxGeometry x="914" y="25" width="120" height="60" as="geometry" />
        </mxCell>
        <mxCell id="4UamNcmBHcD0NCrSmqoo-75" style="edgeStyle=none;curved=1;rounded=0;orthogonalLoop=1;jettySize=auto;html=1;entryX=0.5;entryY=0;entryDx=0;entryDy=0;fontSize=12;startSize=8;endSize=8;" edge="1" parent="4UamNcmBHcD0NCrSmqoo-2" source="4UamNcmBHcD0NCrSmqoo-72" target="4UamNcmBHcD0NCrSmqoo-73">
          <mxGeometry relative="1" as="geometry" />
        </mxCell>
        <mxCell id="4UamNcmBHcD0NCrSmqoo-72" value="Save to Submitted Document" style="shape=process;whiteSpace=wrap;html=1;backgroundOutline=1;" vertex="1" parent="4UamNcmBHcD0NCrSmqoo-2">
          <mxGeometry x="1047" y="24" width="120" height="60" as="geometry" />
        </mxCell>
        <mxCell id="4UamNcmBHcD0NCrSmqoo-73" value="Approval DB" style="shape=datastore;whiteSpace=wrap;html=1;fillColor=#fff2cc;strokeColor=#d6b656;" vertex="1" parent="4UamNcmBHcD0NCrSmqoo-2">
          <mxGeometry x="1077" y="134" width="60" height="60" as="geometry" />
        </mxCell>
        <mxCell id="4UamNcmBHcD0NCrSmqoo-86" style="edgeStyle=orthogonalEdgeStyle;rounded=0;orthogonalLoop=1;jettySize=auto;html=1;entryX=0.634;entryY=0.087;entryDx=0;entryDy=0;entryPerimeter=0;fontSize=12;startSize=8;endSize=8;" edge="1" parent="4UamNcmBHcD0NCrSmqoo-2" source="4UamNcmBHcD0NCrSmqoo-47" target="4UamNcmBHcD0NCrSmqoo-53">
          <mxGeometry relative="1" as="geometry" />
        </mxCell>
        <mxCell id="4UamNcmBHcD0NCrSmqoo-96" value="Yes" style="edgeLabel;html=1;align=center;verticalAlign=middle;resizable=0;points=[];fontSize=12;" vertex="1" connectable="0" parent="4UamNcmBHcD0NCrSmqoo-86">
          <mxGeometry x="-0.7836" y="-4" relative="1" as="geometry">
            <mxPoint x="-3" y="-3" as="offset" />
          </mxGeometry>
        </mxCell>
        <mxCell id="4UamNcmBHcD0NCrSmqoo-120" style="edgeStyle=orthogonalEdgeStyle;rounded=0;orthogonalLoop=1;jettySize=auto;html=1;entryX=0;entryY=0.5;entryDx=0;entryDy=0;fontSize=12;startSize=8;endSize=8;" edge="1" parent="4UamNcmBHcD0NCrSmqoo-2" source="4UamNcmBHcD0NCrSmqoo-110" target="4UamNcmBHcD0NCrSmqoo-119">
          <mxGeometry relative="1" as="geometry">
            <Array as="points">
              <mxPoint x="1271" y="200" />
              <mxPoint x="1580" y="200" />
            </Array>
          </mxGeometry>
        </mxCell>
        <mxCell id="4UamNcmBHcD0NCrSmqoo-110" value="Get List Data" style="shape=process;whiteSpace=wrap;html=1;backgroundOutline=1;" vertex="1" parent="4UamNcmBHcD0NCrSmqoo-2">
          <mxGeometry x="1211" y="25" width="120" height="60" as="geometry" />
        </mxCell>
        <mxCell id="4UamNcmBHcD0NCrSmqoo-119" value="Upload DB" style="shape=datastore;whiteSpace=wrap;html=1;" vertex="1" parent="4UamNcmBHcD0NCrSmqoo-2">
          <mxGeometry x="1666" y="170" width="60" height="60" as="geometry" />
        </mxCell>
        <mxCell id="4UamNcmBHcD0NCrSmqoo-132" style="edgeStyle=orthogonalEdgeStyle;rounded=0;orthogonalLoop=1;jettySize=auto;html=1;fontSize=12;startSize=8;endSize=8;entryX=0;entryY=0.5;entryDx=0;entryDy=0;" edge="1" parent="4UamNcmBHcD0NCrSmqoo-2" source="4UamNcmBHcD0NCrSmqoo-109" target="4UamNcmBHcD0NCrSmqoo-119">
          <mxGeometry relative="1" as="geometry">
            <mxPoint x="1650" y="280" as="targetPoint" />
            <Array as="points">
              <mxPoint x="1401" y="200" />
            </Array>
          </mxGeometry>
        </mxCell>
        <mxCell id="4UamNcmBHcD0NCrSmqoo-109" value="Get Data by ID" style="shape=process;whiteSpace=wrap;html=1;backgroundOutline=1;" vertex="1" parent="4UamNcmBHcD0NCrSmqoo-2">
          <mxGeometry x="1341" y="26" width="120" height="60" as="geometry" />
        </mxCell>
        <mxCell id="4UamNcmBHcD0NCrSmqoo-137" style="edgeStyle=orthogonalEdgeStyle;rounded=0;orthogonalLoop=1;jettySize=auto;html=1;fontSize=12;startSize=8;endSize=8;entryX=0;entryY=0.5;entryDx=0;entryDy=0;" edge="1" parent="4UamNcmBHcD0NCrSmqoo-2" source="4UamNcmBHcD0NCrSmqoo-135" target="4UamNcmBHcD0NCrSmqoo-119">
          <mxGeometry relative="1" as="geometry">
            <mxPoint x="1650" y="290" as="targetPoint" />
            <Array as="points">
              <mxPoint x="1550" y="200" />
            </Array>
          </mxGeometry>
        </mxCell>
        <mxCell id="4UamNcmBHcD0NCrSmqoo-135" value="Download response" style="shape=process;whiteSpace=wrap;html=1;backgroundOutline=1;" vertex="1" parent="4UamNcmBHcD0NCrSmqoo-2">
          <mxGeometry x="1490" y="26" width="120" height="60" as="geometry" />
        </mxCell>
        <mxCell id="4UamNcmBHcD0NCrSmqoo-156" style="edgeStyle=orthogonalEdgeStyle;rounded=0;orthogonalLoop=1;jettySize=auto;html=1;entryX=1;entryY=0.5;entryDx=0;entryDy=0;fontSize=12;startSize=8;endSize=8;" edge="1" parent="4UamNcmBHcD0NCrSmqoo-2" source="4UamNcmBHcD0NCrSmqoo-146" target="4UamNcmBHcD0NCrSmqoo-119">
          <mxGeometry relative="1" as="geometry">
            <Array as="points">
              <mxPoint x="1956" y="200" />
            </Array>
          </mxGeometry>
        </mxCell>
        <mxCell id="4UamNcmBHcD0NCrSmqoo-146" value="Get Data by ID" style="shape=process;whiteSpace=wrap;html=1;backgroundOutline=1;" vertex="1" parent="4UamNcmBHcD0NCrSmqoo-2">
          <mxGeometry x="1896" y="30" width="120" height="60" as="geometry" />
        </mxCell>
        <mxCell id="4UamNcmBHcD0NCrSmqoo-157" style="edgeStyle=orthogonalEdgeStyle;rounded=0;orthogonalLoop=1;jettySize=auto;html=1;entryX=1;entryY=0.5;entryDx=0;entryDy=0;fontSize=12;startSize=8;endSize=8;" edge="1" parent="4UamNcmBHcD0NCrSmqoo-2" source="4UamNcmBHcD0NCrSmqoo-150" target="4UamNcmBHcD0NCrSmqoo-119">
          <mxGeometry relative="1" as="geometry">
            <Array as="points">
              <mxPoint x="2090" y="200" />
            </Array>
          </mxGeometry>
        </mxCell>
        <mxCell id="4UamNcmBHcD0NCrSmqoo-150" value="Download unprocessed" style="shape=process;whiteSpace=wrap;html=1;backgroundOutline=1;" vertex="1" parent="4UamNcmBHcD0NCrSmqoo-2">
          <mxGeometry x="2030" y="30" width="120" height="60" as="geometry" />
        </mxCell>
        <mxCell id="4UamNcmBHcD0NCrSmqoo-3" value="Log API" style="swimlane;html=1;startSize=20;horizontal=0;" vertex="1" parent="dNxyNK7c78bLwvsdeMH5-19">
          <mxGeometry x="20" y="900" width="3270" height="120" as="geometry" />
        </mxCell>
        <mxCell id="4UamNcmBHcD0NCrSmqoo-36" value="Save to Error Log" style="shape=process;whiteSpace=wrap;html=1;backgroundOutline=1;" vertex="1" parent="4UamNcmBHcD0NCrSmqoo-3">
          <mxGeometry x="60" y="30" width="120" height="60" as="geometry" />
        </mxCell>
        <mxCell id="4UamNcmBHcD0NCrSmqoo-97" value="Save To Audit Trail" style="shape=process;whiteSpace=wrap;html=1;backgroundOutline=1;" vertex="1" parent="4UamNcmBHcD0NCrSmqoo-3">
          <mxGeometry x="510" y="30" width="120" height="60" as="geometry" />
        </mxCell>
        <mxCell id="4UamNcmBHcD0NCrSmqoo-98" value="Save to Error Log" style="shape=process;whiteSpace=wrap;html=1;backgroundOutline=1;" vertex="1" parent="4UamNcmBHcD0NCrSmqoo-3">
          <mxGeometry x="660" y="30" width="120" height="60" as="geometry" />
        </mxCell>
        <mxCell id="4UamNcmBHcD0NCrSmqoo-161" value="Save To Audit Trail" style="shape=process;whiteSpace=wrap;html=1;backgroundOutline=1;" vertex="1" parent="4UamNcmBHcD0NCrSmqoo-3">
          <mxGeometry x="1210" y="30" width="120" height="60" as="geometry" />
        </mxCell>
        <mxCell id="4UamNcmBHcD0NCrSmqoo-162" value="Save to Error Log" style="shape=process;whiteSpace=wrap;html=1;backgroundOutline=1;" vertex="1" parent="4UamNcmBHcD0NCrSmqoo-3">
          <mxGeometry x="1360" y="30" width="120" height="60" as="geometry" />
        </mxCell>
        <mxCell id="4UamNcmBHcD0NCrSmqoo-62" style="edgeStyle=orthogonalEdgeStyle;rounded=0;orthogonalLoop=1;jettySize=auto;html=1;fontSize=12;startSize=8;endSize=8;entryX=0.5;entryY=0;entryDx=0;entryDy=0;" edge="1" parent="dNxyNK7c78bLwvsdeMH5-19" source="4UamNcmBHcD0NCrSmqoo-57" target="4UamNcmBHcD0NCrSmqoo-113">
          <mxGeometry relative="1" as="geometry">
            <mxPoint x="996" y="426" as="targetPoint" />
            <Array as="points">
              <mxPoint x="994" y="214" />
            </Array>
          </mxGeometry>
        </mxCell>
        <mxCell id="4UamNcmBHcD0NCrSmqoo-68" style="edgeStyle=orthogonalEdgeStyle;rounded=0;orthogonalLoop=1;jettySize=auto;html=1;entryX=0.5;entryY=0;entryDx=0;entryDy=0;fontSize=12;startSize=8;endSize=8;" edge="1" parent="dNxyNK7c78bLwvsdeMH5-19" source="4UamNcmBHcD0NCrSmqoo-57" target="4UamNcmBHcD0NCrSmqoo-114">
          <mxGeometry relative="1" as="geometry">
            <mxPoint x="1127.0000000000005" y="426" as="targetPoint" />
          </mxGeometry>
        </mxCell>
        <mxCell id="4UamNcmBHcD0NCrSmqoo-74" style="edgeStyle=none;curved=1;rounded=0;orthogonalLoop=1;jettySize=auto;html=1;fontSize=12;startSize=8;endSize=8;exitX=0.5;exitY=1;exitDx=0;exitDy=0;" edge="1" parent="dNxyNK7c78bLwvsdeMH5-19" source="4UamNcmBHcD0NCrSmqoo-114" target="4UamNcmBHcD0NCrSmqoo-72">
          <mxGeometry relative="1" as="geometry">
            <mxPoint x="1127.0000000000005" y="486" as="sourcePoint" />
          </mxGeometry>
        </mxCell>
        <mxCell id="4UamNcmBHcD0NCrSmqoo-39" style="edgeStyle=none;curved=1;rounded=0;orthogonalLoop=1;jettySize=auto;html=1;entryX=0.5;entryY=0;entryDx=0;entryDy=0;fontSize=12;startSize=8;endSize=8;" edge="1" parent="dNxyNK7c78bLwvsdeMH5-19" source="4UamNcmBHcD0NCrSmqoo-34" target="4UamNcmBHcD0NCrSmqoo-40">
          <mxGeometry relative="1" as="geometry" />
        </mxCell>
        <mxCell id="4UamNcmBHcD0NCrSmqoo-95" style="edgeStyle=none;curved=1;rounded=0;orthogonalLoop=1;jettySize=auto;html=1;entryX=0.5;entryY=0;entryDx=0;entryDy=0;fontSize=12;startSize=8;endSize=8;" edge="1" parent="dNxyNK7c78bLwvsdeMH5-19" source="4UamNcmBHcD0NCrSmqoo-33" target="4UamNcmBHcD0NCrSmqoo-44">
          <mxGeometry relative="1" as="geometry" />
        </mxCell>
        <mxCell id="4UamNcmBHcD0NCrSmqoo-115" value="" style="edgeStyle=none;curved=1;rounded=0;orthogonalLoop=1;jettySize=auto;html=1;fontSize=12;startSize=8;endSize=8;exitX=0.5;exitY=1;exitDx=0;exitDy=0;" edge="1" parent="dNxyNK7c78bLwvsdeMH5-19" source="4UamNcmBHcD0NCrSmqoo-113" target="4UamNcmBHcD0NCrSmqoo-69">
          <mxGeometry relative="1" as="geometry" />
        </mxCell>
        <mxCell id="4UamNcmBHcD0NCrSmqoo-117" style="edgeStyle=none;curved=1;rounded=0;orthogonalLoop=1;jettySize=auto;html=1;entryX=0.5;entryY=0;entryDx=0;entryDy=0;fontSize=12;startSize=8;endSize=8;" edge="1" parent="dNxyNK7c78bLwvsdeMH5-19" source="4UamNcmBHcD0NCrSmqoo-112" target="4UamNcmBHcD0NCrSmqoo-110">
          <mxGeometry relative="1" as="geometry" />
        </mxCell>
        <mxCell id="4UamNcmBHcD0NCrSmqoo-122" style="edgeStyle=none;curved=1;rounded=0;orthogonalLoop=1;jettySize=auto;html=1;entryX=0;entryY=0;entryDx=50;entryDy=0;entryPerimeter=0;fontSize=12;startSize=8;endSize=8;" edge="1" parent="dNxyNK7c78bLwvsdeMH5-19" source="4UamNcmBHcD0NCrSmqoo-121" target="4UamNcmBHcD0NCrSmqoo-88">
          <mxGeometry relative="1" as="geometry" />
        </mxCell>
        <mxCell id="4UamNcmBHcD0NCrSmqoo-123" style="edgeStyle=none;curved=1;rounded=0;orthogonalLoop=1;jettySize=auto;html=1;entryX=0;entryY=0;entryDx=50;entryDy=0;entryPerimeter=0;fontSize=12;startSize=8;endSize=8;" edge="1" parent="dNxyNK7c78bLwvsdeMH5-19" source="4UamNcmBHcD0NCrSmqoo-121" target="4UamNcmBHcD0NCrSmqoo-89">
          <mxGeometry relative="1" as="geometry" />
        </mxCell>
        <mxCell id="4UamNcmBHcD0NCrSmqoo-124" style="edgeStyle=none;curved=1;rounded=0;orthogonalLoop=1;jettySize=auto;html=1;entryX=0.5;entryY=0;entryDx=0;entryDy=0;fontSize=12;startSize=8;endSize=8;" edge="1" parent="dNxyNK7c78bLwvsdeMH5-19" source="4UamNcmBHcD0NCrSmqoo-121" target="4UamNcmBHcD0NCrSmqoo-90">
          <mxGeometry relative="1" as="geometry" />
        </mxCell>
        <mxCell id="4UamNcmBHcD0NCrSmqoo-125" style="edgeStyle=none;curved=1;rounded=0;orthogonalLoop=1;jettySize=auto;html=1;fontSize=12;startSize=8;endSize=8;" edge="1" parent="dNxyNK7c78bLwvsdeMH5-19" source="4UamNcmBHcD0NCrSmqoo-121">
          <mxGeometry relative="1" as="geometry">
            <mxPoint x="1850" y="190" as="targetPoint" />
          </mxGeometry>
        </mxCell>
        <mxCell id="4UamNcmBHcD0NCrSmqoo-126" style="edgeStyle=none;curved=1;rounded=0;orthogonalLoop=1;jettySize=auto;html=1;entryX=0;entryY=0;entryDx=50;entryDy=0;entryPerimeter=0;fontSize=12;startSize=8;endSize=8;" edge="1" parent="dNxyNK7c78bLwvsdeMH5-19" source="4UamNcmBHcD0NCrSmqoo-121" target="4UamNcmBHcD0NCrSmqoo-100">
          <mxGeometry relative="1" as="geometry" />
        </mxCell>
        <mxCell id="4UamNcmBHcD0NCrSmqoo-127" style="edgeStyle=none;curved=1;rounded=0;orthogonalLoop=1;jettySize=auto;html=1;entryX=0.5;entryY=0;entryDx=0;entryDy=0;fontSize=12;startSize=8;endSize=8;" edge="1" parent="dNxyNK7c78bLwvsdeMH5-19" source="4UamNcmBHcD0NCrSmqoo-121" target="4UamNcmBHcD0NCrSmqoo-91">
          <mxGeometry relative="1" as="geometry" />
        </mxCell>
        <mxCell id="4UamNcmBHcD0NCrSmqoo-129" style="edgeStyle=none;curved=1;rounded=0;orthogonalLoop=1;jettySize=auto;html=1;fontSize=12;startSize=8;endSize=8;entryX=0.5;entryY=0;entryDx=0;entryDy=0;" edge="1" parent="dNxyNK7c78bLwvsdeMH5-19" source="4UamNcmBHcD0NCrSmqoo-89" target="4UamNcmBHcD0NCrSmqoo-130">
          <mxGeometry relative="1" as="geometry">
            <mxPoint x="1420" y="450" as="targetPoint" />
          </mxGeometry>
        </mxCell>
        <mxCell id="4UamNcmBHcD0NCrSmqoo-131" value="" style="edgeStyle=none;curved=1;rounded=0;orthogonalLoop=1;jettySize=auto;html=1;fontSize=12;startSize=8;endSize=8;" edge="1" parent="dNxyNK7c78bLwvsdeMH5-19" source="4UamNcmBHcD0NCrSmqoo-130" target="4UamNcmBHcD0NCrSmqoo-109">
          <mxGeometry relative="1" as="geometry" />
        </mxCell>
        <mxCell id="4UamNcmBHcD0NCrSmqoo-134" style="edgeStyle=none;curved=1;rounded=0;orthogonalLoop=1;jettySize=auto;html=1;entryX=0.5;entryY=0;entryDx=0;entryDy=0;fontSize=12;startSize=8;endSize=8;" edge="1" parent="dNxyNK7c78bLwvsdeMH5-19" source="4UamNcmBHcD0NCrSmqoo-90" target="4UamNcmBHcD0NCrSmqoo-133">
          <mxGeometry relative="1" as="geometry" />
        </mxCell>
        <mxCell id="4UamNcmBHcD0NCrSmqoo-136" style="edgeStyle=none;curved=1;rounded=0;orthogonalLoop=1;jettySize=auto;html=1;fontSize=12;startSize=8;endSize=8;" edge="1" parent="dNxyNK7c78bLwvsdeMH5-19" source="4UamNcmBHcD0NCrSmqoo-133" target="4UamNcmBHcD0NCrSmqoo-135">
          <mxGeometry relative="1" as="geometry" />
        </mxCell>
        <mxCell id="4UamNcmBHcD0NCrSmqoo-138" value="" style="edgeStyle=none;curved=1;rounded=0;orthogonalLoop=1;jettySize=auto;html=1;fontSize=12;startSize=8;endSize=8;" edge="1" parent="dNxyNK7c78bLwvsdeMH5-19" source="4UamNcmBHcD0NCrSmqoo-99" target="4UamNcmBHcD0NCrSmqoo-101">
          <mxGeometry relative="1" as="geometry" />
        </mxCell>
        <mxCell id="4UamNcmBHcD0NCrSmqoo-139" style="edgeStyle=none;curved=1;rounded=0;orthogonalLoop=1;jettySize=auto;html=1;entryX=0.5;entryY=0;entryDx=0;entryDy=0;fontSize=12;startSize=8;endSize=8;" edge="1" parent="dNxyNK7c78bLwvsdeMH5-19" source="4UamNcmBHcD0NCrSmqoo-88" target="4UamNcmBHcD0NCrSmqoo-112">
          <mxGeometry relative="1" as="geometry" />
        </mxCell>
        <mxCell id="4UamNcmBHcD0NCrSmqoo-145" style="edgeStyle=none;curved=1;rounded=0;orthogonalLoop=1;jettySize=auto;html=1;entryX=0.5;entryY=0;entryDx=0;entryDy=0;fontSize=12;startSize=8;endSize=8;" edge="1" parent="dNxyNK7c78bLwvsdeMH5-19" source="4UamNcmBHcD0NCrSmqoo-100" target="4UamNcmBHcD0NCrSmqoo-144">
          <mxGeometry relative="1" as="geometry" />
        </mxCell>
        <mxCell id="4UamNcmBHcD0NCrSmqoo-147" value="" style="edgeStyle=none;curved=1;rounded=0;orthogonalLoop=1;jettySize=auto;html=1;fontSize=12;startSize=8;endSize=8;" edge="1" parent="dNxyNK7c78bLwvsdeMH5-19" source="4UamNcmBHcD0NCrSmqoo-144" target="4UamNcmBHcD0NCrSmqoo-146">
          <mxGeometry relative="1" as="geometry" />
        </mxCell>
        <mxCell id="4UamNcmBHcD0NCrSmqoo-149" style="edgeStyle=none;curved=1;rounded=0;orthogonalLoop=1;jettySize=auto;html=1;entryX=0.5;entryY=0;entryDx=0;entryDy=0;fontSize=12;startSize=8;endSize=8;" edge="1" parent="dNxyNK7c78bLwvsdeMH5-19" source="4UamNcmBHcD0NCrSmqoo-91" target="4UamNcmBHcD0NCrSmqoo-148">
          <mxGeometry relative="1" as="geometry" />
        </mxCell>
        <mxCell id="4UamNcmBHcD0NCrSmqoo-151" value="" style="edgeStyle=none;curved=1;rounded=0;orthogonalLoop=1;jettySize=auto;html=1;fontSize=12;startSize=8;endSize=8;" edge="1" parent="dNxyNK7c78bLwvsdeMH5-19" source="4UamNcmBHcD0NCrSmqoo-148" target="4UamNcmBHcD0NCrSmqoo-150">
          <mxGeometry relative="1" as="geometry" />
        </mxCell>
        <mxCell id="4UamNcmBHcD0NCrSmqoo-93" style="edgeStyle=none;curved=1;rounded=0;orthogonalLoop=1;jettySize=auto;html=1;entryX=0.5;entryY=0;entryDx=0;entryDy=0;fontSize=12;startSize=8;endSize=8;" edge="1" parent="1" source="4UamNcmBHcD0NCrSmqoo-12" target="4UamNcmBHcD0NCrSmqoo-10">
          <mxGeometry relative="1" as="geometry" />
        </mxCell>
        <mxCell id="4UamNcmBHcD0NCrSmqoo-12" value="Upload Data GPH" style="shape=parallelogram;perimeter=parallelogramPerimeter;whiteSpace=wrap;html=1;fixedSize=1;" vertex="1" parent="1">
          <mxGeometry x="190" y="555" width="120" height="60" as="geometry" />
        </mxCell>
        <mxCell id="4UamNcmBHcD0NCrSmqoo-20" style="edgeStyle=none;curved=1;rounded=0;orthogonalLoop=1;jettySize=auto;html=1;fontSize=12;startSize=8;endSize=8;entryX=0.5;entryY=0;entryDx=0;entryDy=0;" edge="1" parent="1" source="4UamNcmBHcD0NCrSmqoo-14" target="4UamNcmBHcD0NCrSmqoo-12">
          <mxGeometry relative="1" as="geometry" />
        </mxCell>
        <mxCell id="4UamNcmBHcD0NCrSmqoo-87" value="List GPH Manual" style="shape=display;whiteSpace=wrap;html=1;" vertex="1" parent="1">
          <mxGeometry x="1910" y="315" width="100" height="50" as="geometry" />
        </mxCell>
        <mxCell id="4UamNcmBHcD0NCrSmqoo-140" value="Get List Data" style="shape=parallelogram;perimeter=parallelogramPerimeter;whiteSpace=wrap;html=1;fixedSize=1;" vertex="1" parent="1">
          <mxGeometry x="1900" y="550" width="120" height="60" as="geometry" />
        </mxCell>
        <mxCell id="4UamNcmBHcD0NCrSmqoo-155" style="edgeStyle=orthogonalEdgeStyle;rounded=0;orthogonalLoop=1;jettySize=auto;html=1;entryX=1;entryY=0.5;entryDx=0;entryDy=0;fontSize=12;startSize=8;endSize=8;" edge="1" parent="1" source="4UamNcmBHcD0NCrSmqoo-142" target="4UamNcmBHcD0NCrSmqoo-119">
          <mxGeometry relative="1" as="geometry">
            <Array as="points">
              <mxPoint x="1960" y="840" />
            </Array>
          </mxGeometry>
        </mxCell>
        <mxCell id="4UamNcmBHcD0NCrSmqoo-142" value="Get List Data" style="shape=process;whiteSpace=wrap;html=1;backgroundOutline=1;" vertex="1" parent="1">
          <mxGeometry x="1900" y="670" width="120" height="60" as="geometry" />
        </mxCell>
        <mxCell id="4UamNcmBHcD0NCrSmqoo-141" style="edgeStyle=none;curved=1;rounded=0;orthogonalLoop=1;jettySize=auto;html=1;entryX=0.5;entryY=0;entryDx=0;entryDy=0;fontSize=12;startSize=8;endSize=8;" edge="1" parent="1" source="4UamNcmBHcD0NCrSmqoo-87" target="4UamNcmBHcD0NCrSmqoo-140">
          <mxGeometry relative="1" as="geometry" />
        </mxCell>
        <mxCell id="4UamNcmBHcD0NCrSmqoo-143" value="" style="edgeStyle=none;curved=1;rounded=0;orthogonalLoop=1;jettySize=auto;html=1;fontSize=12;startSize=8;endSize=8;" edge="1" parent="1" source="4UamNcmBHcD0NCrSmqoo-140" target="4UamNcmBHcD0NCrSmqoo-142">
          <mxGeometry relative="1" as="geometry" />
        </mxCell>
        <mxCell id="4UamNcmBHcD0NCrSmqoo-160" value="[Upload File] BDI Data GPH" style="text;html=1;align=center;verticalAlign=middle;whiteSpace=wrap;rounded=0;fontSize=16;fontStyle=1;fillColor=#e1d5e7;strokeColor=#9673a6;" vertex="1" parent="1">
          <mxGeometry x="160" y="90" width="2150" height="30" as="geometry" />
        </mxCell>
      </root>
    </mxGraphModel>
  </diagram>
</mxfile>
